<svg version="1.1" id="Layer_1" xmlns="http://www.w3.org/2000/svg" xmlns:xlink="http://www.w3.org/1999/xlink" x="0px" y="0px"
	 width="100%" viewBox="0 0 53 53" enable-background="new 0 0 53 53" xml:space="preserve">
<path fill="#000000" opacity="1.000000" stroke="none" 
	d="
M54.000000,20.999043 
	C54.000000,32.332561 54.000000,43.165874 54.000000,53.999393 
	C36.333633,53.999596 18.667265,53.999596 1.000674,53.999798 
	C1.000449,36.333664 1.000449,18.667324 1.000224,1.000740 
	C18.666307,1.000493 36.332615,1.000493 53.999462,1.000247 
	C54.000000,7.499614 54.000000,13.999228 54.000000,20.999043 
M45.033840,17.001547 
	C45.033840,17.001547 45.021034,16.969898 44.993553,16.492043 
	C44.642403,16.515509 44.291252,16.538977 43.437454,16.509937 
	C42.993610,16.267029 42.549767,16.024120 42.308861,15.023039 
	C40.990829,14.331491 39.672798,13.639943 37.905098,12.308177 
	C36.623661,12.147500 35.342220,11.986823 33.864685,11.285637 
	C33.208668,10.962152 32.552654,10.638668 31.950996,9.579592 
	C31.891956,9.100943 31.832916,8.622293 31.818996,7.443811 
	C30.533817,6.618552 29.248640,5.793293 27.202045,4.902822 
	C23.475269,3.611347 21.336531,4.414414 21.336973,9.088817 
	C21.154034,9.718315 20.971094,10.347814 20.413069,10.985970 
	C20.413069,10.985970 20.057535,11.105799 19.476561,11.028936 
	C19.255798,11.336790 19.035038,11.644644 18.280727,11.976585 
	C17.850260,12.201094 17.419792,12.425601 16.228601,12.917281 
	C14.809975,13.278034 13.391349,13.638788 11.489262,14.003881 
	C11.489262,14.003881 11.006445,14.029217 10.521524,14.138167 
	C10.427608,14.274441 10.225303,14.488752 10.257857,14.533971 
	C10.432665,14.776769 10.665927,14.977483 11.176949,15.447667 
	C11.368814,15.640073 11.598435,15.760507 11.366350,16.025799 
	C11.013195,16.101971 10.660039,16.178143 9.759653,15.750008 
	C9.382494,16.365099 9.005335,16.980192 8.240687,17.944111 
	C7.624850,18.411470 7.009013,18.878832 6.168263,18.601442 
	C5.778727,18.736403 5.389190,18.871363 5.581778,19.653618 
	C5.871027,19.630346 6.160275,19.607073 6.695512,20.406710 
	C6.545909,20.650808 6.396306,20.894909 5.528660,20.629200 
	C4.733944,22.029823 3.939229,23.430447 3.144513,24.831068 
	C4.139742,25.120195 5.134972,25.409321 6.589047,26.140333 
	C6.793858,26.515631 6.998668,26.890928 7.215380,27.920126 
	C7.400736,28.312393 7.586092,28.704662 7.757645,29.593998 
	C7.831013,30.268448 7.904381,30.942898 7.403430,31.977087 
	C7.664412,32.976215 7.925395,33.975342 8.109256,35.509998 
	C8.391423,35.718513 8.673592,35.927029 9.016147,36.794472 
	C9.739050,37.863052 10.461952,38.931633 11.220482,40.651798 
	C12.440582,41.450344 13.660682,42.248894 15.147454,43.666470 
	C17.085485,45.121490 19.023518,46.576508 20.942293,48.024761 
	C20.942293,48.024761 20.932467,48.046959 21.187157,48.630981 
	C21.793274,48.690861 22.399393,48.750744 23.465641,48.949749 
	C23.465641,48.949749 23.938835,49.034393 24.312544,49.745792 
	C26.574173,49.502972 28.835802,49.260151 31.769060,48.949570 
	C32.849930,48.303364 33.930801,47.657158 35.655827,46.761799 
	C37.780544,44.872650 39.905258,42.983501 42.604809,40.831787 
	C43.088219,39.924145 43.571625,39.016502 44.610851,37.853756 
	C44.757114,37.275829 44.903374,36.697903 45.548756,35.930584 
	C45.647484,35.619778 45.746212,35.308968 45.988277,34.287643 
	C46.171234,33.860897 46.354191,33.434155 47.000950,32.569866 
	C47.017326,31.726938 47.033699,30.884010 47.485146,29.701717 
	C47.359074,28.855951 47.233006,28.010183 47.162716,26.529749 
	C47.385754,26.178404 47.608791,25.827059 47.748932,26.010956 
	C48.160831,26.009720 48.572731,26.008484 49.620167,25.588936 
	C49.462879,23.668291 49.305592,21.747646 48.849274,19.440002 
	C48.626564,19.182234 48.348164,19.019999 47.710678,18.574461 
	C47.480915,18.941803 47.251156,19.309145 46.566463,19.420670 
	C46.385509,18.931395 46.204556,18.442120 45.946484,17.428852 
	C45.647846,17.275675 45.349205,17.122498 45.033840,17.001547 
M43.702415,14.593876 
	C43.498936,14.576768 43.295460,14.559659 43.091980,14.542551 
	C43.185421,14.649056 43.278866,14.755562 43.702415,14.593876 
z"/>
<path fill="#FEF6E9" opacity="1.000000" stroke="none" 
	d="
M46.023598,17.952845 
	C46.204556,18.442120 46.385509,18.931395 46.795567,19.909344 
	C47.287880,21.047575 47.551090,21.697128 47.737579,22.673882 
	C47.706951,23.671515 47.753036,24.341953 47.715519,25.134699 
	C47.631912,25.257008 47.831829,25.475712 47.831829,25.475712 
	C47.608791,25.827059 47.385754,26.178404 46.869011,26.880276 
	C46.406330,27.288208 46.237362,27.345615 46.105045,27.235672 
	C46.141697,27.068325 45.975231,26.768856 45.897411,26.620106 
	C45.537079,26.535267 45.254566,26.599178 44.703178,26.703350 
	C42.649639,26.417217 40.864975,26.090824 39.067947,25.410980 
	C38.402996,23.903498 37.750412,22.749466 37.310066,21.395243 
	C37.837143,20.698298 38.151985,20.201544 38.466827,19.704790 
	C37.385086,19.482187 36.303345,19.259584 35.178658,18.826073 
	C35.135712,18.615162 35.069309,18.189840 35.179230,17.936678 
	C35.522129,17.399065 35.755100,17.114613 36.414299,16.716072 
	C37.073109,16.421898 37.305698,16.241814 37.794903,16.236256 
	C38.035904,16.617085 38.020287,16.823389 38.072948,16.982143 
	C38.141228,16.934593 38.094528,17.203812 38.094528,17.203812 
	C38.094528,17.203812 38.035740,16.999071 37.758839,16.814976 
	C37.548286,16.419369 37.614639,16.207855 38.125416,16.030008 
	C39.748535,15.969521 40.927231,15.875365 42.105923,15.781210 
	C42.549767,16.024120 42.993610,16.267029 43.929520,16.716587 
	C44.621403,16.938791 44.821220,16.954344 45.021034,16.969898 
	C45.021034,16.969898 45.033840,17.001547 45.062263,17.259657 
	C45.401657,17.662792 45.712627,17.807819 46.023598,17.952845 
z"/>
<path fill="#FCF8E7" opacity="1.000000" stroke="none" 
	d="
M6.393175,19.346193 
	C7.009013,18.878832 7.624850,18.411470 8.677364,17.630173 
	C9.511655,16.962259 9.909269,16.608286 10.306884,16.254313 
	C10.660039,16.178143 11.013195,16.101971 11.982651,16.040747 
	C13.235677,15.760863 13.872401,15.466032 14.461536,15.465880 
	C15.116942,15.930116 15.819939,16.099672 16.669775,16.420809 
	C16.816616,16.572390 17.016668,16.944054 17.150955,17.184258 
	C17.621088,17.537130 17.956934,17.649797 18.167669,17.810932 
	C18.042557,17.859398 18.272787,17.721546 18.179562,18.040970 
	C18.054733,18.579720 18.023132,18.799046 17.980982,19.298321 
	C17.963011,19.764893 17.955587,19.951511 17.660076,20.241310 
	C16.622318,21.244635 15.872644,22.144777 14.696048,23.033052 
	C12.845656,23.013813 11.422188,23.006441 9.824944,22.761364 
	C8.700892,22.339996 7.750618,22.156336 6.696745,21.868261 
	C6.679036,21.389421 6.563554,21.181141 6.246702,21.139011 
	C6.396306,20.894909 6.545909,20.650808 6.537346,19.983778 
	C6.379179,19.560846 6.368356,19.442305 6.354484,19.412813 
	C6.340611,19.383322 6.393176,19.346193 6.393175,19.346193 
z"/>
<path fill="#F97D2B" opacity="1.000000" stroke="none" 
	d="
M23.938835,49.034393 
	C23.938835,49.034393 23.465641,48.949749 23.034424,48.671120 
	C22.046291,48.277313 21.489380,48.162136 20.932467,48.046959 
	C20.932467,48.046959 20.942293,48.024761 20.965591,47.639229 
	C21.000200,46.474953 21.011509,45.696209 21.436264,44.929962 
	C23.230330,44.967026 24.610950,44.991589 26.225418,45.058449 
	C26.459265,45.100742 26.933285,45.135353 27.130096,45.348831 
	C27.881580,45.706577 28.436249,45.850842 29.330158,45.994442 
	C30.442724,45.651012 31.216051,45.308247 31.992733,44.691799 
	C31.977589,44.236584 31.959087,44.055058 31.987640,43.666489 
	C32.034691,43.459454 32.164845,43.055256 32.521492,43.051437 
	C33.586643,43.130062 34.295143,43.212509 35.002602,43.666641 
	C35.004929,45.029202 35.008301,46.020077 35.011673,47.010948 
	C33.930801,47.657158 32.849930,48.303364 31.150467,48.929897 
	C30.342972,48.876980 30.154074,48.843739 29.711575,48.588699 
	C27.973310,48.535660 26.488647,48.704418 24.737873,48.914646 
	C24.294121,48.982208 24.116478,49.008301 23.938835,49.034393 
z"/>
<path fill="#F58424" opacity="1.000000" stroke="none" 
	d="
M35.333748,46.886375 
	C35.008301,46.020077 35.004929,45.029202 35.240112,43.462547 
	C36.336113,42.014477 37.193554,41.142181 38.299244,40.133125 
	C38.723495,39.674129 38.899498,39.351894 39.040329,39.021626 
	C39.005165,39.013592 39.044403,39.074131 39.290627,38.992405 
	C39.672512,38.605530 39.808174,38.300385 40.124306,37.832275 
	C40.522446,37.427612 40.762802,37.211098 41.050762,37.066982 
	C41.075676,37.114189 41.147392,37.193272 41.102837,37.529057 
	C41.382179,38.941345 41.706078,40.017849 42.029972,41.094353 
	C39.905258,42.983501 37.780544,44.872650 35.333748,46.886375 
z"/>
<path fill="#FB7432" opacity="1.000000" stroke="none" 
	d="
M7.771448,29.096931 
	C7.586092,28.704662 7.400736,28.312393 7.421990,27.451214 
	C8.080343,26.767416 8.532085,26.552528 9.311017,26.363930 
	C10.075786,26.391861 10.513364,26.393505 11.259598,26.594315 
	C12.812359,26.757719 14.056464,26.721960 15.265446,26.548985 
	C15.230322,26.411770 15.497335,26.317154 15.333866,26.734699 
	C15.117896,27.446537 15.065396,27.740829 15.146780,28.300598 
	C15.909238,29.005585 16.537811,29.445095 17.267868,29.912172 
	C17.369349,29.939739 17.579500,29.931376 17.426302,30.181351 
	C16.515852,30.579763 15.758601,30.728203 14.843073,30.673679 
	C14.118108,30.627630 13.551419,30.784544 12.619705,30.972090 
	C11.525898,30.930756 10.797118,30.858789 9.935982,30.545406 
	C9.126233,29.901638 8.448840,29.499285 7.771448,29.096931 
z"/>
<path fill="#F37931" opacity="1.000000" stroke="none" 
	d="
M8.186377,34.974472 
	C7.925395,33.975342 7.664412,32.976215 7.822082,32.104710 
	C8.834036,32.469269 9.427339,32.706200 10.236051,33.113220 
	C10.926517,33.555443 11.401573,33.827579 11.953955,34.375313 
	C12.274940,34.940407 12.518600,35.229908 12.726722,35.668236 
	C12.691184,35.817059 12.844623,36.081825 12.868811,36.386356 
	C12.940735,37.093891 12.988473,37.496895 12.993103,38.212700 
	C12.361615,39.017071 11.773235,39.508640 11.184855,40.000214 
	C10.461952,38.931633 9.739050,37.863052 8.927237,36.231308 
	C8.694005,35.368320 8.476688,35.137100 8.186377,34.974472 
z"/>
<path fill="#3D1A0D" opacity="1.000000" stroke="none" 
	d="
M47.050072,30.041084 
	C47.033699,30.884010 47.017326,31.726938 46.390617,32.671593 
	C44.554314,33.203434 43.328342,33.633553 41.756035,34.041939 
	C40.602116,33.691242 39.794533,33.362274 38.999596,32.680397 
	C39.027657,32.092560 39.043068,31.857641 39.338909,31.493534 
	C41.404583,30.907717 43.189835,30.451086 45.320778,29.997686 
	C46.127678,30.014305 46.588875,30.027695 47.050072,30.041084 
z"/>
<path fill="#48D890" opacity="1.000000" stroke="none" 
	d="
M21.967962,8.871196 
	C21.336531,4.414414 23.475269,3.611347 27.611832,5.244829 
	C27.656500,6.318914 27.291384,7.050993 26.606010,7.844576 
	C25.793261,8.275660 25.300766,8.645240 24.755960,9.221081 
	C24.703650,9.427341 24.578558,9.835711 24.449865,9.856197 
	C24.321173,9.876684 24.123405,10.046435 24.159039,10.001158 
	C24.194674,9.955881 24.145025,9.851890 24.172653,9.651501 
	C24.200281,9.451112 24.113092,9.056050 24.041481,8.857172 
	C23.638050,8.709828 23.306231,8.761364 22.925882,9.052002 
	C22.877354,9.291104 22.879637,9.779055 22.745594,9.784807 
	C22.611551,9.790559 22.360590,9.885530 22.276400,9.626541 
	C22.117460,9.202099 22.042711,9.036648 21.967962,8.871196 
z"/>
<path fill="#F3A85C" opacity="1.000000" stroke="none" 
	d="
M31.896639,10.315183 
	C32.552654,10.638668 33.208668,10.962152 33.783417,11.840968 
	C33.124496,13.060608 32.546852,13.724916 31.673147,14.305241 
	C31.214630,14.095962 31.052174,13.970668 30.703629,13.632586 
	C29.791973,13.256994 29.066410,13.094192 27.952559,12.938517 
	C27.048544,12.906894 26.532818,12.868144 26.012648,12.528735 
	C26.003000,11.827188 25.997795,11.426299 26.339043,11.011150 
	C27.502092,10.666650 28.318686,10.336410 29.330683,9.945416 
	C29.526087,9.884665 29.934330,9.855873 30.250751,9.970463 
	C31.010330,10.161763 31.453484,10.238473 31.896639,10.315183 
z"/>
<path fill="#4D3C30" opacity="1.000000" stroke="none" 
	d="
M42.207390,15.402124 
	C40.927231,15.875365 39.748535,15.969521 38.116486,16.069984 
	C37.663128,16.076294 37.538284,16.061728 37.538284,16.061728 
	C37.305698,16.241814 37.073109,16.421898 36.411354,16.420574 
	C36.016685,15.650167 36.051189,15.061169 36.343933,14.243401 
	C37.186367,13.659218 37.770569,13.303806 38.354767,12.948395 
	C39.672798,13.639943 40.990829,14.331491 42.207390,15.402124 
z"/>
<path fill="#FA7A34" opacity="1.000000" stroke="none" 
	d="
M21.022820,44.917465 
	C21.011509,45.696209 21.000200,46.474953 20.975220,47.642609 
	C19.023518,46.576508 17.085485,45.121490 15.426874,43.328110 
	C16.253407,42.919987 16.800520,42.850227 17.625778,42.814774 
	C18.278950,42.850342 18.653976,42.851608 19.288960,43.003094 
	C19.721863,43.254070 19.894810,43.354832 20.210394,43.624798 
	C20.576294,44.168491 20.799557,44.542980 21.022820,44.917465 
z"/>
<path fill="#F89945" opacity="1.000000" stroke="none" 
	d="
M16.989325,12.650108 
	C17.419792,12.425601 17.850260,12.201094 18.798834,11.896834 
	C19.563805,11.579988 19.810671,11.342894 20.057535,11.105799 
	C20.057535,11.105799 20.413069,10.985970 20.679413,10.985565 
	C20.945759,10.985160 21.080341,11.064180 21.190445,11.360550 
	C21.553263,12.452684 21.805979,13.248450 22.022858,14.256779 
	C21.987024,14.469342 21.920343,14.894821 21.508350,14.944064 
	C19.738708,14.813967 18.381062,14.634626 17.074045,14.157100 
	C17.079559,13.455978 17.034441,13.053043 16.989325,12.650108 
z"/>
<path fill="#E67F42" opacity="1.000000" stroke="none" 
	d="
M42.102371,34.063671 
	C43.328342,33.633553 44.554314,33.203434 46.158714,32.890362 
	C46.354191,33.434155 46.171234,33.860897 45.724701,34.782932 
	C45.236225,35.515915 45.099064,35.796501 45.049637,36.119976 
	C44.903374,36.697903 44.757114,37.275829 44.138763,37.711990 
	C42.826916,37.444569 41.987152,37.318920 41.147392,37.193272 
	C41.147392,37.193272 41.075676,37.114189 41.116432,36.758408 
	C41.472248,35.622978 41.787312,34.843323 42.102371,34.063671 
z"/>
<path fill="#302219" opacity="1.000000" stroke="none" 
	d="
M5.887681,20.884106 
	C6.563554,21.181141 6.679036,21.389421 6.472795,22.186483 
	C6.278361,23.638895 6.204281,24.668671 6.130200,25.698448 
	C5.134972,25.409321 4.139742,25.120195 3.144513,24.831070 
	C3.939229,23.430447 4.733944,22.029823 5.887681,20.884106 
z"/>
<path fill="#F57937" opacity="1.000000" stroke="none" 
	d="
M17.347633,42.780468 
	C16.800520,42.850227 16.253407,42.919987 15.293537,43.018593 
	C13.660682,42.248894 12.440582,41.450344 11.202669,40.326004 
	C11.773235,39.508640 12.361615,39.017071 13.193799,38.261597 
	C13.437603,37.997692 13.844013,38.072742 13.918360,38.370865 
	C14.700819,39.354523 15.408934,40.040058 16.208250,41.013313 
	C16.648848,41.794178 16.998240,42.287323 17.347633,42.780468 
z"/>
<path fill="#FFF3E4" opacity="1.000000" stroke="none" 
	d="
M6.359623,25.919392 
	C6.204281,24.668671 6.278361,23.638895 6.576392,22.290895 
	C7.750618,22.156336 8.700892,22.339996 9.555201,23.001736 
	C9.300766,24.432425 9.142297,25.385033 8.983828,26.337643 
	C8.532085,26.552528 8.080343,26.767416 7.416039,27.124264 
	C6.998668,26.890928 6.793858,26.515631 6.359623,25.919392 
z"/>
<path fill="#96877B" opacity="1.000000" stroke="none" 
	d="
M16.608963,12.783695 
	C17.034441,13.053043 17.079559,13.455978 16.864496,14.587292 
	C16.577188,15.633523 16.550062,15.951375 16.522934,16.269228 
	C15.819939,16.099672 15.116942,15.930116 14.274265,15.138488 
	C13.413963,14.344125 12.693343,14.171833 11.972722,13.999542 
	C13.391349,13.638788 14.809975,13.278034 16.608963,12.783695 
z"/>
<path fill="#45BC89" opacity="1.000000" stroke="none" 
	d="
M26.926268,7.783072 
	C27.291384,7.050993 27.656500,6.318914 27.992540,5.277435 
	C29.248640,5.793293 30.533817,6.618552 31.630356,7.777739 
	C31.441713,8.111667 31.108307,8.093822 30.688128,8.068483 
	C29.154055,7.956453 28.040161,7.869763 26.926268,7.783072 
z"/>
<path fill="#F6AE6A" opacity="1.000000" stroke="none" 
	d="
M38.129932,12.628286 
	C37.770569,13.303806 37.186367,13.659218 35.947258,14.327747 
	C35.039951,14.737926 34.787556,14.834990 34.591110,14.964752 
	C34.647064,14.997452 34.675331,14.991961 34.316914,15.039274 
	C33.295399,14.854134 32.632301,14.621680 31.969206,14.389225 
	C32.546852,13.724916 33.124496,13.060608 33.881462,12.111223 
	C35.342220,11.986823 36.623661,12.147500 38.129932,12.628286 
z"/>
<path fill="#F78731" opacity="1.000000" stroke="none" 
	d="
M41.102837,37.529057 
	C41.987152,37.318920 42.826916,37.444569 43.860855,37.839539 
	C43.571625,39.016502 43.088219,39.924145 42.317390,40.963070 
	C41.706078,40.017849 41.382179,38.941345 41.102837,37.529057 
z"/>
<path fill="#401904" opacity="1.000000" stroke="none" 
	d="
M10.020641,32.943130 
	C9.427339,32.706200 8.834036,32.469269 8.109241,31.924841 
	C7.904381,30.942898 7.831013,30.268448 7.764546,29.345465 
	C8.448840,29.499285 9.126233,29.901638 9.920552,30.905022 
	C10.031866,31.985079 10.026254,32.464104 10.020641,32.943130 
z"/>
<path fill="#D1A086" opacity="1.000000" stroke="none" 
	d="
M29.965178,48.810497 
	C30.154074,48.843739 30.342972,48.876980 30.814651,48.963776 
	C28.835802,49.260151 26.574173,49.502972 24.125690,49.390091 
	C24.116478,49.008301 24.294121,48.982208 25.150375,48.963387 
	C27.207716,48.917271 28.586447,48.863884 29.965178,48.810497 
z"/>
<path fill="#302219" opacity="1.000000" stroke="none" 
	d="
M47.267609,29.871401 
	C46.588875,30.027695 46.127678,30.014305 45.423321,29.727703 
	C45.476238,28.770666 45.772316,28.086843 46.068394,27.403021 
	C46.237362,27.345615 46.406330,27.288208 46.841118,27.197609 
	C47.233006,28.010183 47.359074,28.855951 47.267609,29.871401 
z"/>
<path fill="#423D39" opacity="1.000000" stroke="none" 
	d="
M49.148308,19.827002 
	C49.305592,21.747646 49.462879,23.668291 49.300968,25.547132 
	C48.981152,25.338045 48.980534,25.170759 48.988052,24.586981 
	C48.993187,22.784540 48.990177,21.398594 49.027962,19.966679 
	C49.068760,19.920713 49.148304,19.827002 49.148308,19.827002 
z"/>
<path fill="#3F352B" opacity="1.000000" stroke="none" 
	d="
M47.814301,22.346684 
	C47.551090,21.697128 47.287880,21.047575 47.023033,20.037254 
	C47.251156,19.309145 47.480915,18.941803 47.857483,19.033298 
	C48.004005,19.671463 48.003716,19.850788 47.998257,20.417921 
	C47.933487,21.319380 47.873894,21.833031 47.814301,22.346684 
z"/>
<path fill="#534234" opacity="1.000000" stroke="none" 
	d="
M11.730991,14.001711 
	C12.693343,14.171833 13.413963,14.344125 14.321856,14.843809 
	C13.872401,15.466032 13.235677,15.760863 12.232383,15.932331 
	C11.598435,15.760507 11.368814,15.640073 11.068247,15.029531 
	C10.975179,14.417336 10.990811,14.223276 11.006445,14.029217 
	C11.006445,14.029217 11.489262,14.003881 11.730991,14.001711 
z"/>
<path fill="#929A67" opacity="1.000000" stroke="none" 
	d="
M31.108307,8.093822 
	C31.108307,8.093822 31.441713,8.111667 31.607796,8.127655 
	C31.832916,8.622293 31.891956,9.100943 31.923817,9.947388 
	C31.453484,10.238473 31.010330,10.161763 30.398521,9.750100 
	C30.522680,8.974706 30.815495,8.534264 31.108307,8.093822 
z"/>
<path fill="#473B31" opacity="1.000000" stroke="none" 
	d="
M10.033268,16.002159 
	C9.909269,16.608286 9.511655,16.962259 8.871108,17.455757 
	C9.005335,16.980192 9.382494,16.365099 10.033268,16.002159 
z"/>
<path fill="#E6BE80" opacity="1.000000" stroke="none" 
	d="
M21.652468,8.980006 
	C22.042711,9.036648 22.117460,9.202099 22.118204,9.881256 
	C21.722912,10.618033 21.401627,10.841106 21.080341,11.064180 
	C21.080341,11.064180 20.945759,10.985160 20.866959,10.981236 
	C20.971094,10.347814 21.154034,9.718315 21.652468,8.980006 
z"/>
<path fill="#E07A39" opacity="1.000000" stroke="none" 
	d="
M21.059811,48.338970 
	C21.489380,48.162136 22.046291,48.277313 22.804358,48.601555 
	C22.399393,48.750744 21.793274,48.690861 21.059811,48.338970 
z"/>
<path fill="#483422" opacity="1.000000" stroke="none" 
	d="
M48.979912,25.003473 
	C48.980534,25.170759 48.981152,25.338045 48.983200,25.756289 
	C48.572731,26.008484 48.160831,26.009720 47.790382,25.743334 
	C47.831829,25.475712 47.631912,25.257008 48.010834,25.131073 
	C48.586475,25.004581 48.783192,25.004026 48.979912,25.003473 
z"/>
<path fill="#302219" opacity="1.000000" stroke="none" 
	d="
M6.368356,19.442305 
	C6.368356,19.442305 6.379179,19.560846 6.414352,19.572323 
	C6.160275,19.607073 5.871027,19.630346 5.661460,19.349276 
	C5.950213,19.177389 6.159285,19.309847 6.368356,19.442305 
z"/>
<path fill="#423D39" opacity="1.000000" stroke="none" 
	d="
M48.003429,20.030115 
	C48.003716,19.850788 48.004005,19.671463 48.009186,19.222717 
	C48.348164,19.019999 48.626564,19.182234 48.998787,19.633503 
	C49.148304,19.827002 49.068760,19.920713 48.782082,19.966795 
	C48.495407,20.012877 48.003429,20.030115 48.003429,20.030115 
z"/>
<path fill="#4D3C30" opacity="1.000000" stroke="none" 
	d="
M45.007294,16.730970 
	C44.821220,16.954344 44.621403,16.938791 44.180840,16.742840 
	C44.291252,16.538977 44.642403,16.515509 45.007294,16.730970 
z"/>
<path fill="#D67843" opacity="1.000000" stroke="none" 
	d="
M8.147816,35.242233 
	C8.476688,35.137100 8.694005,35.368320 8.897043,35.901840 
	C8.673592,35.927029 8.391423,35.718513 8.147816,35.242233 
z"/>
<path fill="#3F352B" opacity="1.000000" stroke="none" 
	d="
M45.985043,17.690849 
	C45.712627,17.807819 45.401657,17.662792 45.070625,17.243546 
	C45.349205,17.122498 45.647846,17.275675 45.985043,17.690849 
z"/>
<path fill="#DF8358" opacity="1.000000" stroke="none" 
	d="
M45.299194,36.025280 
	C45.099064,35.796501 45.236225,35.515915 45.653034,35.138191 
	C45.746212,35.308968 45.647484,35.619778 45.299194,36.025280 
z"/>
<path fill="#4D3C30" opacity="1.000000" stroke="none" 
	d="
M43.537361,14.727972 
	C43.278866,14.755562 43.185421,14.649056 43.091980,14.542551 
	C43.295460,14.559659 43.498936,14.576768 43.537361,14.727972 
z"/>
<path fill="#473B31" opacity="1.000000" stroke="none" 
	d="
M10.763985,14.083693 
	C10.990811,14.223276 10.975179,14.417336 10.919273,14.902061 
	C10.665927,14.977483 10.432665,14.776769 10.257857,14.533971 
	C10.225303,14.488752 10.427608,14.274441 10.763985,14.083693 
z"/>
<path fill="#3B3228" opacity="1.000000" stroke="none" 
	d="
M6.354484,19.412813 
	C6.159285,19.309847 5.950213,19.177389 5.370398,19.025627 
	C5.389190,18.871363 5.778727,18.736403 6.280719,18.973818 
	C6.393176,19.346193 6.340611,19.383322 6.354484,19.412813 
z"/>
<path fill="#EAA753" opacity="1.000000" stroke="none" 
	d="
M19.767048,11.067368 
	C19.810671,11.342894 19.563805,11.579988 19.065609,11.884790 
	C19.035038,11.644644 19.255798,11.336790 19.767048,11.067368 
z"/>
<path fill="#F87733" opacity="1.000000" stroke="none" 
	d="
M46.105045,27.235672 
	C45.772316,28.086843 45.476238,28.770666 45.077621,29.724472 
	C43.189835,30.451086 41.404583,30.907717 39.066849,31.354502 
	C37.723202,31.146173 36.932045,30.947693 36.172932,30.523983 
	C36.204975,30.298754 36.293343,29.852425 36.488998,29.633533 
	C36.807556,28.638350 36.930458,27.862061 37.271805,26.962536 
	C37.692574,26.577848 37.894897,26.316397 38.333488,25.950150 
	C38.739941,25.818380 38.910130,25.791407 39.080315,25.764433 
	C40.864975,26.090824 42.649639,26.417217 44.943741,26.827595 
	C45.627197,26.864004 45.801216,26.816431 45.975231,26.768856 
	C45.975231,26.768856 46.141697,27.068325 46.105045,27.235672 
z"/>
<path fill="#483422" opacity="1.000000" stroke="none" 
	d="
M31.673147,14.305241 
	C32.632301,14.621680 33.295399,14.854134 34.292854,15.022443 
	C34.627209,14.958298 34.535156,14.932052 34.535156,14.932052 
	C34.787556,14.834990 35.039951,14.737926 35.689022,14.556518 
	C36.051189,15.061169 36.016685,15.650167 35.985126,16.534662 
	C35.755100,17.114613 35.522129,17.399065 34.870865,18.030716 
	C34.304531,18.940159 34.156483,19.502401 34.009865,20.032631 
	C34.011299,20.000618 34.046345,20.054291 33.739052,19.930241 
	C33.015381,20.307528 32.599003,20.808863 32.117241,20.994579 
	C31.754381,20.133539 31.456905,19.588121 31.150108,18.691113 
	C31.036880,17.651264 30.932978,16.963001 30.884151,15.980082 
	C31.002640,15.291319 31.066050,14.897214 31.075499,14.336497 
	C31.021540,14.169885 30.889717,13.845373 30.889717,13.845373 
	C31.052174,13.970668 31.214630,14.095962 31.673147,14.305241 
z"/>
<path fill="#28231A" opacity="1.000000" stroke="none" 
	d="
M39.067947,25.410980 
	C38.910130,25.791407 38.739941,25.818380 37.980564,25.905243 
	C36.938530,26.080788 36.485687,26.196442 35.732559,26.249281 
	C35.031918,26.105661 34.631561,26.024858 34.195019,25.618153 
	C34.121338,23.546265 34.083839,21.800278 34.046341,20.054291 
	C34.046345,20.054291 34.011299,20.000618 34.231800,20.248783 
	C34.623520,20.381361 34.794739,20.265774 35.257690,20.245750 
	C36.065563,20.759354 36.581696,21.177395 37.097828,21.595436 
	C37.750412,22.749466 38.402996,23.903498 39.067947,25.410980 
z"/>
<path fill="#FDFAF3" opacity="1.000000" stroke="none" 
	d="
M37.310066,21.395243 
	C36.581696,21.177395 36.065563,20.759354 35.309139,19.964567 
	C35.119766,19.404207 35.170685,19.220594 35.221603,19.036982 
	C36.303345,19.259584 37.385086,19.482187 38.466827,19.704790 
	C38.151985,20.201544 37.837143,20.698298 37.310066,21.395243 
z"/>
<path fill="#3A2E24" opacity="1.000000" stroke="none" 
	d="
M47.998257,20.417921 
	C48.003429,20.030115 48.495407,20.012877 48.741287,20.012760 
	C48.990177,21.398594 48.993187,22.784540 48.988052,24.586981 
	C48.783192,25.004026 48.586475,25.004581 48.094440,25.008764 
	C47.753036,24.341953 47.706951,23.671515 47.737579,22.673882 
	C47.873894,21.833031 47.933487,21.319380 47.998257,20.417921 
z"/>
<path fill="#EDEAD3" opacity="1.000000" stroke="none" 
	d="
M35.178658,18.826073 
	C35.170685,19.220594 35.119766,19.404207 35.017403,19.869005 
	C34.794739,20.265774 34.623520,20.381361 34.230370,20.280798 
	C34.156483,19.502401 34.304531,18.940159 34.760941,18.283878 
	C35.069309,18.189840 35.135712,18.615162 35.178658,18.826073 
z"/>
<path fill="#FFD7B4" opacity="1.000000" stroke="none" 
	d="
M45.897411,26.620106 
	C45.801216,26.816431 45.627197,26.864004 45.212616,26.787334 
	C45.254566,26.599178 45.537079,26.535267 45.897411,26.620106 
z"/>
<path fill="#483422" opacity="1.000000" stroke="none" 
	d="
M37.794903,16.236256 
	C37.538284,16.061728 37.663128,16.076294 37.672058,16.036318 
	C37.614639,16.207855 37.548286,16.419369 37.736752,16.808500 
	C37.991566,16.986118 38.004669,17.029696 38.004669,17.029696 
	C38.020287,16.823389 38.035904,16.617085 37.794903,16.236256 
z"/>
<path fill="#483422" opacity="1.000000" stroke="none" 
	d="
M38.013653,16.992596 
	C38.035740,16.999071 38.094528,17.203812 38.094528,17.203812 
	C38.094528,17.203812 38.141228,16.934593 38.072948,16.982143 
	C38.004669,17.029696 37.991566,16.986118 38.013653,16.992596 
z"/>
<path fill="#52371F" opacity="1.000000" stroke="none" 
	d="
M16.669775,16.420809 
	C16.550062,15.951375 16.577188,15.633523 16.813866,14.885478 
	C18.381062,14.634626 19.738708,14.813967 21.548340,15.337546 
	C22.086187,16.201857 22.172049,16.721930 22.361782,17.501076 
	C22.677896,18.467350 22.890133,19.174549 22.803453,20.099413 
	C22.217743,20.715755 21.930952,21.114435 21.459915,21.429222 
	C21.275673,21.345329 20.917624,21.156294 20.898327,20.848015 
	C20.241648,19.788521 19.604263,19.037308 18.853325,18.071228 
	C18.739771,17.856361 18.272787,17.721546 18.272787,17.721546 
	C18.272787,17.721546 18.042557,17.859398 18.053425,17.550747 
	C17.715084,17.142750 17.365877,17.043402 17.016668,16.944054 
	C17.016668,16.944054 16.816616,16.572390 16.669775,16.420809 
z"/>
<path fill="#24241C" opacity="1.000000" stroke="none" 
	d="
M15.122971,23.044920 
	C15.872644,22.144777 16.622318,21.244635 17.712692,20.486755 
	C18.156027,20.761141 18.258661,20.893259 18.310438,21.241199 
	C18.259581,21.457022 18.553766,21.788122 18.553766,21.788122 
	C18.553766,21.788122 18.984158,21.683119 19.193840,21.820072 
	C19.567999,21.985756 19.732473,22.014488 19.936371,22.414581 
	C19.706585,23.973524 19.437374,25.161106 18.846684,26.265841 
	C17.515913,26.227713 16.506624,26.272434 15.497335,26.317154 
	C15.497335,26.317154 15.230322,26.411770 15.256124,26.202778 
	C15.090195,25.861141 14.898462,25.728497 14.759747,25.276876 
	C14.916164,24.320240 15.019567,23.682579 15.122971,23.044920 
z"/>
<path fill="#FEF6EE" opacity="1.000000" stroke="none" 
	d="
M14.696047,23.033052 
	C15.019567,23.682579 14.916164,24.320240 14.377436,25.325207 
	C12.945055,25.926725 11.947999,26.160936 10.950943,26.395149 
	C10.513364,26.393505 10.075786,26.391861 9.311017,26.363930 
	C9.142297,25.385033 9.300766,24.432425 9.728977,23.239443 
	C11.422188,23.006441 12.845656,23.013813 14.696047,23.033052 
z"/>
<path fill="#F0EDEA" opacity="1.000000" stroke="none" 
	d="
M18.361296,21.025377 
	C18.258661,20.893259 18.156027,20.761141 18.000778,20.383577 
	C17.955587,19.951511 17.963011,19.764893 18.175779,19.221745 
	C18.641441,18.737984 18.836693,18.544943 18.966881,18.286095 
	C19.604263,19.037308 20.241648,19.788521 20.755375,21.024839 
	C20.411596,21.721874 20.166674,21.899632 19.896948,22.043219 
	C19.732473,22.014488 19.567999,21.985756 19.141333,21.668360 
	C18.757900,21.186512 18.585285,21.068407 18.361296,21.025377 
z"/>
<path fill="#FAE4D4" opacity="1.000000" stroke="none" 
	d="
M17.150955,17.184258 
	C17.365877,17.043402 17.715084,17.142750 18.178537,17.502281 
	C17.956934,17.649797 17.621088,17.537130 17.150955,17.184258 
z"/>
<path fill="#FAE4D4" opacity="1.000000" stroke="none" 
	d="
M18.853325,18.071228 
	C18.836693,18.544943 18.641441,18.737984 18.186327,18.941793 
	C18.023132,18.799046 18.054733,18.579720 18.179562,18.040970 
	C18.272787,17.721546 18.739771,17.856361 18.853325,18.071228 
z"/>
<path fill="#743232" opacity="1.000000" stroke="none" 
	d="
M38.050995,40.269886 
	C37.193554,41.142181 36.336113,42.014477 35.241158,43.090858 
	C34.295143,43.212509 33.586643,43.130062 32.494316,42.963387 
	C32.110493,42.879154 31.971128,42.758564 31.872185,42.600029 
	C31.773243,42.441498 31.419298,42.321434 31.559937,42.217464 
	C31.700577,42.113495 32.031521,42.000225 32.240158,41.880127 
	C32.717773,41.562874 32.903664,41.305660 32.865814,40.672752 
	C32.457035,39.719559 32.188908,39.081993 32.170753,38.293602 
	C33.304413,37.859585 34.188091,37.576389 35.342331,37.492661 
	C36.728283,37.798977 37.843678,37.905830 38.971222,38.010658 
	C38.983372,38.008629 39.007523,38.013485 39.010181,38.278877 
	C39.023361,38.720886 39.033882,38.897507 39.044403,39.074131 
	C39.044403,39.074131 39.005165,39.013592 38.792076,39.154228 
	C38.402992,39.619873 38.226994,39.944881 38.050995,40.269886 
z"/>
<path fill="#EB7E90" opacity="1.000000" stroke="none" 
	d="
M32.137669,42.967205 
	C32.164845,43.055256 32.034691,43.459454 31.567451,43.695053 
	C29.409924,43.928650 27.719633,43.926643 25.971811,43.596115 
	C25.232841,42.825836 24.551407,42.384071 23.916470,41.745743 
	C23.962967,41.549179 24.061186,41.156681 24.428707,41.204514 
	C25.532257,41.184631 26.268286,41.116917 27.363461,41.123154 
	C28.938931,41.211113 30.155251,41.225124 31.487289,41.472130 
	C31.745846,41.803490 31.888683,41.901855 32.031521,42.000225 
	C32.031521,42.000225 31.700577,42.113495 31.580132,42.313843 
	C31.562634,42.731113 31.733114,42.812572 31.971128,42.758564 
	C31.971128,42.758564 32.110493,42.879154 32.137669,42.967205 
z"/>
<path fill="#DD637E" opacity="1.000000" stroke="none" 
	d="
M23.869972,41.942307 
	C24.551407,42.384071 25.232841,42.825836 25.957943,43.869263 
	C25.998262,44.652668 25.994917,44.834408 25.991570,45.016151 
	C24.610950,44.991589 23.230330,44.967026 21.436264,44.929962 
	C20.799557,44.542980 20.576294,44.168491 20.411503,43.318817 
	C21.603308,42.543186 22.736641,42.242744 23.869972,41.942307 
z"/>
<path fill="#D9696F" opacity="1.000000" stroke="none" 
	d="
M26.225418,45.058449 
	C25.994917,44.834408 25.998262,44.652668 26.015476,44.197781 
	C27.719633,43.926643 29.409924,43.928650 31.520401,43.902092 
	C31.959087,44.055058 31.977589,44.236584 31.623814,44.694206 
	C30.513649,44.986973 29.775759,45.003647 28.686081,45.016300 
	C27.867292,45.053303 27.400288,45.094330 26.933285,45.135353 
	C26.933285,45.135353 26.459265,45.100742 26.225418,45.058449 
z"/>
<path fill="#E07A39" opacity="1.000000" stroke="none" 
	d="
M29.711575,48.588699 
	C28.586447,48.863884 27.207716,48.917271 25.416485,48.921913 
	C26.488647,48.704418 27.973310,48.535660 29.711575,48.588699 
z"/>
<path fill="#F88448" opacity="1.000000" stroke="none" 
	d="
M29.037867,45.020317 
	C29.775759,45.003647 30.513649,44.986973 31.620461,44.967896 
	C31.216051,45.308247 30.442724,45.651012 29.338549,45.750610 
	C29.007700,45.507446 29.037867,45.020317 29.037867,45.020317 
z"/>
<path fill="#E1724C" opacity="1.000000" stroke="none" 
	d="
M28.686081,45.016296 
	C29.037867,45.020317 29.007700,45.507446 28.999310,45.751274 
	C28.436249,45.850842 27.881580,45.706577 27.130096,45.348831 
	C27.400288,45.094330 27.867292,45.053303 28.686081,45.016296 
z"/>
<path fill="#5B2509" opacity="1.000000" stroke="none" 
	d="
M41.756035,34.041939 
	C41.787312,34.843323 41.472248,35.622978 41.091515,36.711205 
	C40.762802,37.211098 40.522446,37.427612 39.890549,37.837646 
	C39.476318,38.005974 39.007523,38.013485 39.007523,38.013485 
	C39.007523,38.013485 38.983372,38.008629 38.946968,37.690437 
	C38.292946,36.912605 37.675327,36.452961 37.178535,35.695023 
	C37.006737,34.765129 36.714115,34.133530 36.557579,33.486198 
	C36.693668,33.470463 36.898834,33.288864 37.240482,33.203053 
	C38.050404,33.089260 38.518681,33.061283 38.986954,33.033306 
	C39.794533,33.362274 40.602116,33.691242 41.756035,34.041939 
z"/>
<path fill="#632F29" opacity="1.000000" stroke="none" 
	d="
M38.299244,40.133125 
	C38.226994,39.944881 38.402992,39.619873 38.827244,39.162262 
	C38.899498,39.351894 38.723495,39.674129 38.299244,40.133125 
z"/>
<path fill="#55291F" opacity="1.000000" stroke="none" 
	d="
M39.010181,38.278877 
	C39.007523,38.013485 39.476318,38.005974 39.710075,38.000603 
	C39.808174,38.300385 39.672512,38.605530 39.290627,38.992405 
	C39.033882,38.897507 39.023361,38.720886 39.010181,38.278877 
z"/>
<path fill="#371D14" opacity="1.000000" stroke="none" 
	d="
M10.236051,33.113220 
	C10.026254,32.464104 10.031866,31.985079 10.052908,31.146439 
	C10.797118,30.858789 11.525898,30.930756 12.953654,31.070671 
	C14.102203,31.051294 14.551776,30.963968 15.001349,30.876640 
	C15.758601,30.728203 16.515852,30.579763 17.755711,30.150772 
	C18.454679,29.831247 18.671041,29.792273 19.021971,30.020449 
	C19.678719,30.511776 20.200899,30.735952 20.692436,31.173109 
	C20.661791,31.386089 20.635853,31.815653 20.367802,31.884560 
	C19.736315,32.357609 19.372879,32.761753 18.695160,33.229294 
	C17.556438,33.517784 16.731998,33.742886 15.592266,33.956894 
	C14.857601,33.977810 14.438229,34.009815 13.750768,34.037037 
	C13.303974,34.036510 13.125271,34.040768 12.678368,34.044708 
	C12.232322,34.062832 12.054477,34.081272 11.876631,34.099716 
	C11.401573,33.827579 10.926517,33.555443 10.236051,33.113220 
z"/>
<path fill="#F27D4A" opacity="1.000000" stroke="none" 
	d="
M15.333866,26.734699 
	C16.506624,26.272434 17.515913,26.227713 18.851120,26.404299 
	C19.079880,26.860899 18.994982,27.098970 18.696968,27.501190 
	C18.321341,27.770153 18.171095,27.877747 17.644640,27.990549 
	C16.516584,28.008879 15.764740,28.021999 15.012896,28.035120 
	C15.065396,27.740829 15.117896,27.446537 15.333866,26.734699 
z"/>
<path fill="#EC6D36" opacity="1.000000" stroke="none" 
	d="
M15.146780,28.300598 
	C15.764740,28.021999 16.516584,28.008879 17.547585,28.235706 
	C17.606623,28.945307 17.386503,29.414955 17.166386,29.884605 
	C16.537811,29.445095 15.909238,29.005585 15.146780,28.300598 
z"/>
<path fill="#F27D4A" opacity="1.000000" stroke="none" 
	d="
M17.267868,29.912172 
	C17.386503,29.414955 17.606623,28.945307 17.923796,28.230499 
	C18.171095,27.877747 18.321341,27.770153 18.789455,27.600266 
	C19.293432,27.593828 19.451359,27.694195 19.649204,27.861664 
	C19.717304,27.884258 19.822412,27.977436 19.651035,28.267021 
	C19.282240,28.955503 19.084822,29.354401 18.887403,29.753298 
	C18.671041,29.792273 18.454679,29.831247 17.908909,29.900799 
	C17.579500,29.931376 17.369349,29.939739 17.267868,29.912172 
z"/>
<path fill="#F39E7A" opacity="1.000000" stroke="none" 
	d="
M11.259598,26.594313 
	C11.947999,26.160936 12.945055,25.926725 14.324421,25.644184 
	C14.898462,25.728497 15.090195,25.861141 15.291248,26.339993 
	C14.056464,26.721960 12.812359,26.757719 11.259598,26.594313 
z"/>
<path fill="#DA6B39" opacity="1.000000" stroke="none" 
	d="
M14.843073,30.673679 
	C14.551776,30.963968 14.102203,31.051294 13.318680,31.040039 
	C13.551419,30.784544 14.118108,30.627630 14.843073,30.673679 
z"/>
<path fill="#553031" opacity="1.000000" stroke="none" 
	d="
M14.018856,34.041824 
	C14.438229,34.009815 14.857601,33.977810 15.642306,34.241936 
	C16.289167,35.042362 16.570696,35.546654 16.550531,36.087494 
	C15.831299,36.744175 15.413757,37.364307 14.707502,37.997871 
	C14.227197,38.031788 14.035604,38.052265 13.844013,38.072742 
	C13.844013,38.072742 13.437603,37.997692 13.236907,37.948795 
	C12.988473,37.496895 12.940735,37.093891 13.133810,36.217831 
	C13.589367,35.177124 13.804111,34.609474 14.018856,34.041824 
z"/>
<path fill="#54241F" opacity="1.000000" stroke="none" 
	d="
M13.750767,34.037041 
	C13.804111,34.609474 13.589367,35.177124 13.109622,35.913300 
	C12.844623,36.081825 12.691184,35.817059 12.787837,35.300365 
	C12.905182,34.537457 12.925875,34.291241 12.946567,34.045025 
	C13.125271,34.040768 13.303974,34.036510 13.750767,34.037041 
z"/>
<path fill="#553031" opacity="1.000000" stroke="none" 
	d="
M12.678368,34.044708 
	C12.925875,34.291241 12.905182,34.537457 12.823375,35.151543 
	C12.518600,35.229908 12.274940,34.940407 11.953955,34.375313 
	C12.054477,34.081272 12.232322,34.062832 12.678368,34.044708 
z"/>
<path fill="#2B1A12" opacity="1.000000" stroke="none" 
	d="
M38.999596,32.680397 
	C38.518681,33.061283 38.050404,33.089260 36.917030,33.139839 
	C35.700836,32.824253 35.149742,32.486061 34.918987,31.991961 
	C35.539848,31.473768 35.840366,31.111490 36.140888,30.749210 
	C36.932045,30.947693 37.723202,31.146173 38.786423,31.483688 
	C39.043068,31.857641 39.027657,32.092560 38.999596,32.680397 
z"/>
<path fill="#EAA753" opacity="1.000000" stroke="none" 
	d="
M21.190445,11.360550 
	C21.401627,10.841106 21.722912,10.618033 22.202394,10.140245 
	C22.360590,9.885530 22.611551,9.790559 23.058296,9.877060 
	C23.718369,9.926337 23.931696,9.889113 24.145025,9.851890 
	C24.145025,9.851890 24.194674,9.955881 24.289204,10.251841 
	C24.920019,10.707005 25.456305,10.866207 25.992588,11.025411 
	C25.997795,11.426299 26.003000,11.827188 25.684406,12.598879 
	C24.575386,13.310747 23.790169,13.651811 22.769354,14.024387 
	C22.533758,14.055900 22.058693,14.044215 22.058693,14.044215 
	C21.805979,13.248450 21.553263,12.452684 21.190445,11.360550 
z"/>
<path fill="#379262" opacity="1.000000" stroke="none" 
	d="
M30.688128,8.068483 
	C30.815495,8.534264 30.522680,8.974706 30.082100,9.635509 
	C29.934330,9.855873 29.526087,9.884665 29.343414,9.871597 
	C29.160740,9.858530 29.065599,9.742146 28.774342,9.527852 
	C27.258144,9.213979 26.033209,9.114399 24.808271,9.014820 
	C25.300766,8.645240 25.793261,8.275660 26.606010,7.844576 
	C28.040161,7.869763 29.154055,7.956453 30.688128,8.068483 
z"/>
<path fill="#E6BE80" opacity="1.000000" stroke="none" 
	d="
M26.339043,11.011150 
	C25.456305,10.866207 24.920019,10.707005 24.253571,10.297118 
	C24.123405,10.046435 24.321173,9.876684 24.907307,9.903719 
	C26.684158,9.867884 27.874880,9.805015 29.065599,9.742146 
	C29.065599,9.742146 29.160740,9.858530 29.148010,9.932349 
	C28.318686,10.336410 27.502092,10.666650 26.339043,11.011150 
z"/>
<path fill="#929A67" opacity="1.000000" stroke="none" 
	d="
M28.774342,9.527852 
	C27.874880,9.805015 26.684158,9.867884 25.035999,9.883232 
	C24.578558,9.835711 24.703650,9.427341 24.755960,9.221081 
	C26.033209,9.114399 27.258144,9.213979 28.774342,9.527852 
z"/>
<path fill="#929A67" opacity="1.000000" stroke="none" 
	d="
M24.172653,9.651501 
	C23.931696,9.889113 23.718369,9.926337 23.192341,9.871307 
	C22.879637,9.779055 22.877354,9.291104 23.204370,9.142775 
	C23.725290,9.014980 23.919191,9.035515 24.113092,9.056050 
	C24.113092,9.056050 24.200281,9.451112 24.172653,9.651501 
z"/>
<path fill="#379262" opacity="1.000000" stroke="none" 
	d="
M24.041481,8.857172 
	C23.919191,9.035515 23.725290,9.014980 23.252899,8.903673 
	C23.306231,8.761364 23.638050,8.709828 24.041481,8.857172 
z"/>
<path fill="#8D5D38" opacity="1.000000" stroke="none" 
	d="
M23.004950,13.992874 
	C23.790169,13.651811 24.575386,13.310747 25.688847,12.899538 
	C26.532818,12.868144 27.048544,12.906894 27.949205,13.112346 
	C28.334139,13.279048 28.329639,13.625701 27.818172,13.747756 
	C25.916031,13.971433 24.525354,14.073054 23.063061,14.144754 
	C22.991442,14.114834 22.962847,13.962255 22.978264,13.963371 
	C22.993683,13.964486 23.004950,13.992874 23.004950,13.992874 
z"/>
<path fill="#F6AE6A" opacity="1.000000" stroke="none" 
	d="
M28.329639,13.625701 
	C28.329639,13.625701 28.334139,13.279048 28.337492,13.105219 
	C29.066410,13.094192 29.791973,13.256994 30.703629,13.632586 
	C30.889717,13.845373 31.021540,14.169885 30.775513,14.108310 
	C29.796202,13.906390 29.062922,13.766046 28.329639,13.625701 
z"/>
<path fill="#7B3227" opacity="1.000000" stroke="none" 
	d="
M14.996215,37.984436 
	C15.413757,37.364307 15.831299,36.744175 16.824039,36.109146 
	C17.582296,36.094597 17.765354,36.094940 18.124653,36.334732 
	C18.667559,36.702660 19.034222,36.831142 19.361256,37.071320 
	C19.321623,37.183014 19.285210,37.417023 19.209429,37.861469 
	C19.090555,39.206371 19.047462,40.106831 19.007412,41.315231 
	C19.016636,42.033077 19.022820,42.442974 19.029003,42.852875 
	C18.653976,42.851608 18.278950,42.850342 17.625778,42.814774 
	C16.998240,42.287323 16.648848,41.794178 16.317707,40.752090 
	C15.889377,39.463581 15.442796,38.724007 14.996215,37.984436 
z"/>
<path fill="#64212B" opacity="1.000000" stroke="none" 
	d="
M19.288960,43.003094 
	C19.022820,42.442974 19.016636,42.033077 19.266350,41.206520 
	C20.017603,40.528183 20.512964,40.266506 21.178387,40.231052 
	C22.231840,40.305828 23.115234,40.154385 24.009701,40.291626 
	C24.034246,40.772434 24.047716,40.964558 24.061186,41.156681 
	C24.061186,41.156681 23.962967,41.549179 23.916470,41.745743 
	C22.736641,42.242744 21.603308,42.543186 20.268867,43.149609 
	C19.894810,43.354832 19.721863,43.254070 19.288960,43.003094 
z"/>
<path fill="#603413" opacity="1.000000" stroke="none" 
	d="
M27.818172,13.747756 
	C29.062922,13.766046 29.796202,13.906390 30.829472,14.274922 
	C31.066050,14.897214 31.002640,15.291319 30.577835,15.923593 
	C29.809464,16.071463 29.402489,15.981165 28.802631,15.671676 
	C27.734591,15.553493 26.859434,15.654502 25.646822,15.819490 
	C24.558691,16.307775 23.808016,16.732079 22.856865,17.172001 
	C22.656385,17.187618 22.257908,17.242001 22.257908,17.242001 
	C22.172049,16.721930 22.086187,16.201857 21.960335,15.288303 
	C21.920343,14.894821 21.987024,14.469342 22.022858,14.256779 
	C22.058693,14.044215 22.533758,14.055900 22.769354,14.024387 
	C23.004950,13.992874 22.993683,13.964486 23.053528,13.989083 
	C23.113375,14.013680 23.134678,14.174675 23.134678,14.174675 
	C24.525354,14.073054 25.916031,13.971433 27.818172,13.747756 
z"/>
<path fill="#6E2A1C" opacity="1.000000" stroke="none" 
	d="
M14.707502,37.997871 
	C15.442796,38.724007 15.889377,39.463581 16.226501,40.464375 
	C15.408934,40.040058 14.700819,39.354523 13.918360,38.370865 
	C14.035604,38.052265 14.227197,38.031788 14.707502,37.997871 
z"/>
<path fill="#4D3C30" opacity="1.000000" stroke="none" 
	d="
M34.591110,14.964752 
	C34.535156,14.932052 34.627209,14.958298 34.651268,14.975130 
	C34.675331,14.991961 34.647064,14.997452 34.591110,14.964752 
z"/>
<path fill="#3E1D09" opacity="1.000000" stroke="none" 
	d="
M36.172932,30.523983 
	C35.840366,31.111490 35.539848,31.473768 34.616264,31.923780 
	C32.998371,30.666962 32.003544,29.322411 31.028629,27.730755 
	C31.048546,27.483652 31.098900,26.990406 31.323399,26.837173 
	C31.737963,26.378874 31.928026,26.073803 32.338890,25.969830 
	C32.927219,26.623423 33.294746,27.075920 33.800903,27.801849 
	C34.724136,28.667660 35.508739,29.260042 36.293343,29.852425 
	C36.293343,29.852425 36.204975,30.298754 36.172932,30.523983 
z"/>
<path fill="#F07C4E" opacity="1.000000" stroke="none" 
	d="
M36.488998,29.633533 
	C35.508739,29.260042 34.724136,28.667660 33.963879,27.412422 
	C34.069218,26.481062 34.150211,26.212557 34.231201,25.944054 
	C34.631561,26.024858 35.031918,26.105661 35.871979,26.414545 
	C36.533871,26.832237 36.781094,26.979952 37.053356,27.085770 
	C36.930458,27.862061 36.807556,28.638350 36.488998,29.633533 
z"/>
<path fill="#E29467" opacity="1.000000" stroke="none" 
	d="
M37.271805,26.962536 
	C36.781094,26.979952 36.533871,26.832237 36.172264,26.477362 
	C36.485687,26.196442 36.938530,26.080788 37.744297,26.010036 
	C37.894897,26.316397 37.692574,26.577848 37.271805,26.962536 
z"/>
<path fill="#DE8C3C" opacity="1.000000" stroke="none" 
	d="
M23.057343,17.156382 
	C23.808016,16.732079 24.558691,16.307775 26.017334,15.903358 
	C27.482040,15.912451 28.238777,15.901659 28.995516,15.890866 
	C29.402489,15.981165 29.809464,16.071463 30.522755,16.218250 
	C30.932978,16.963001 31.036880,17.651264 31.040703,18.835392 
	C30.940620,19.331259 30.905882,19.691378 30.680342,19.786320 
	C30.454802,19.881260 30.006550,20.074873 29.959564,19.732613 
	C27.627501,18.645695 25.342421,17.901039 23.057343,17.156382 
z"/>
<path fill="#A8A597" opacity="1.000000" stroke="none" 
	d="
M34.195019,25.618153 
	C34.150211,26.212557 34.069218,26.481062 33.825249,27.138992 
	C33.294746,27.075920 32.927219,26.623423 32.326584,25.596615 
	C32.123196,23.784937 32.152912,22.547567 32.182625,21.310200 
	C32.599003,20.808863 33.015381,20.307528 33.739052,19.930241 
	C34.083839,21.800278 34.121338,23.546265 34.195019,25.618153 
z"/>
<path fill="#3A2813" opacity="1.000000" stroke="none" 
	d="
M32.117241,20.994579 
	C32.152912,22.547567 32.123196,23.784937 32.105785,25.395519 
	C31.928026,26.073803 31.737963,26.378874 31.292381,26.387892 
	C30.993200,23.958353 30.949541,21.824865 30.905882,19.691378 
	C30.905882,19.691378 30.940620,19.331259 31.050026,19.186981 
	C31.456905,19.588121 31.754381,20.133539 32.117241,20.994579 
z"/>
<path fill="#FB820F" opacity="1.000000" stroke="none" 
	d="
M22.856865,17.172001 
	C25.342421,17.901039 27.627501,18.645695 29.958889,20.033905 
	C29.934677,21.074068 29.864155,21.470676 29.593849,22.016794 
	C29.162687,22.413311 28.994253,22.697607 28.694069,23.134499 
	C28.261835,23.450668 28.093765,23.698643 27.739304,24.103619 
	C26.992771,24.474716 26.502108,24.735926 25.987087,24.706955 
	C25.671894,23.941137 25.381060,23.465496 25.067867,22.732231 
	C25.037205,22.302414 25.028900,22.130220 24.992210,21.660156 
	C24.615255,20.915970 24.266687,20.469658 23.701452,19.999317 
	C23.484787,19.975288 23.050751,19.934088 23.070251,19.927929 
	C23.089752,19.921772 23.102371,19.881748 23.102371,19.881748 
	C22.890133,19.174549 22.677896,18.467350 22.361782,17.501076 
	C22.257908,17.242001 22.656385,17.187618 22.856865,17.172001 
z"/>
<path fill="#E3CFC1" opacity="1.000000" stroke="none" 
	d="
M19.581104,27.839067 
	C19.451359,27.694195 19.293432,27.593828 19.014839,27.438896 
	C18.994982,27.098970 19.079880,26.860899 19.172604,26.487146 
	C19.437374,25.161106 19.706585,23.973524 19.936371,22.414581 
	C20.166674,21.899632 20.411596,21.721874 20.774670,21.333118 
	C20.917624,21.156294 21.275673,21.345329 21.430511,21.690338 
	C21.720083,22.354235 21.854816,22.673122 21.897823,23.307396 
	C21.763416,24.274532 21.720737,24.926283 21.446262,25.851261 
	C20.965794,26.528519 20.717119,26.932545 20.281128,27.300259 
	C19.848438,27.388981 19.677536,27.580688 19.581104,27.839067 
z"/>
<path fill="#4E270D" opacity="1.000000" stroke="none" 
	d="
M21.989550,22.992012 
	C21.854816,22.673122 21.720083,22.354235 21.614754,21.774229 
	C21.930952,21.114435 22.217743,20.715755 22.803453,20.099413 
	C23.102371,19.881748 23.089752,19.921772 23.050999,20.316051 
	C23.002367,21.484024 22.992489,22.257719 22.734390,23.020430 
	C22.486170,23.009447 21.989550,22.992012 21.989550,22.992012 
z"/>
<path fill="#EAE5D4" opacity="1.000000" stroke="none" 
	d="
M18.310438,21.241199 
	C18.585285,21.068407 18.757900,21.186512 18.931648,21.531406 
	C18.984158,21.683119 18.553766,21.788122 18.553766,21.788122 
	C18.553766,21.788122 18.259581,21.457022 18.310438,21.241199 
z"/>
<path fill="#FEEBE0" opacity="1.000000" stroke="none" 
	d="
M36.421494,33.501934 
	C36.714115,34.133530 37.006737,34.765129 36.881145,35.763725 
	C35.999214,36.518215 35.535492,36.905704 35.071774,37.293198 
	C34.188091,37.576389 33.304413,37.859585 31.799629,38.326363 
	C30.456720,38.702160 29.734913,38.894371 28.635990,39.023232 
	C27.500404,39.020908 26.741930,39.081947 25.624878,39.057396 
	C23.826981,38.708664 22.387661,38.445518 20.996120,38.066051 
	C21.043900,37.949734 21.070366,37.699631 21.049120,37.381699 
	C21.021215,36.430622 21.014557,35.797470 21.259089,35.136513 
	C21.846802,35.091553 22.183329,35.074409 23.008289,35.082630 
	C25.984116,35.006729 28.471504,34.905457 31.327869,34.818905 
	C33.271729,34.389729 34.846611,33.945831 36.421494,33.501934 
z"/>
<path fill="#65242C" opacity="1.000000" stroke="none" 
	d="
M29.013103,39.086586 
	C29.734913,38.894371 30.456720,38.702160 31.549652,38.477188 
	C32.188908,39.081993 32.457035,39.719559 32.455208,40.723408 
	C31.914021,41.139503 31.642796,41.189316 31.371571,41.239136 
	C30.155251,41.225124 28.938931,41.211113 27.363321,40.868816 
	C27.004112,40.371078 27.004192,40.201622 27.294510,40.003296 
	C28.060865,39.678478 28.536985,39.382530 29.013103,39.086586 
z"/>
<path fill="#632F29" opacity="1.000000" stroke="none" 
	d="
M35.342331,37.492661 
	C35.535492,36.905704 35.999214,36.518215 36.760323,36.062019 
	C37.675327,36.452961 38.292946,36.912605 38.934814,37.692467 
	C37.843678,37.905830 36.728283,37.798977 35.342331,37.492661 
z"/>
<path fill="#F97D2B" opacity="1.000000" stroke="none" 
	d="
M31.872185,42.600029 
	C31.733114,42.812572 31.562634,42.731113 31.439491,42.417809 
	C31.419298,42.321434 31.773243,42.441498 31.872185,42.600029 
z"/>
<path fill="#722226" opacity="1.000000" stroke="none" 
	d="
M31.487289,41.472126 
	C31.642796,41.189316 31.914021,41.139503 32.595856,41.039036 
	C32.903664,41.305660 32.717773,41.562874 32.240158,41.880127 
	C31.888683,41.901855 31.745846,41.803490 31.487289,41.472126 
z"/>
<path fill="#6E2823" opacity="1.000000" stroke="none" 
	d="
M27.004272,40.032166 
	C27.004192,40.201622 27.004112,40.371078 27.004173,40.794868 
	C26.268286,41.116917 25.532257,41.184631 24.428707,41.204514 
	C24.047716,40.964558 24.034246,40.772434 24.343866,40.289608 
	C25.112467,39.995476 25.557974,39.992046 26.253796,39.996872 
	C26.670830,40.014145 26.837551,40.023155 27.004272,40.032166 
z"/>
<path fill="#FA7C25" opacity="1.000000" stroke="none" 
	d="
M36.557579,33.486198 
	C34.846611,33.945831 33.271729,34.389729 31.032763,34.575508 
	C28.260059,34.195667 26.151440,34.073936 23.956364,33.591072 
	C22.791891,32.758507 21.713873,32.287079 20.635853,31.815651 
	C20.635853,31.815653 20.661791,31.386089 20.956829,31.103176 
	C21.906040,29.612797 22.560211,28.405331 23.423038,27.057087 
	C23.793600,26.622681 23.955505,26.329052 24.325363,25.915243 
	C24.789234,25.588217 24.974730,25.330647 25.320179,25.014912 
	C25.550558,25.007473 26.011444,24.997133 26.011444,24.997133 
	C26.502108,24.735926 26.992771,24.474716 27.847630,24.317104 
	C28.402380,24.688883 28.651306,24.881716 28.986540,25.227150 
	C29.014481,25.455101 29.031845,25.914082 29.052629,26.244480 
	C29.493647,27.020884 29.913877,27.466888 30.503201,27.924538 
	C30.672295,27.936180 31.008713,27.977859 31.008713,27.977859 
	C32.003544,29.322411 32.998371,30.666962 34.295921,32.079693 
	C35.149742,32.486061 35.700836,32.824253 36.575382,33.225655 
	C36.898834,33.288864 36.693668,33.470463 36.557579,33.486198 
z"/>
<path fill="#F9DED3" opacity="1.000000" stroke="none" 
	d="
M22.519854,35.057262 
	C22.183329,35.074409 21.846802,35.091553 20.914417,35.089355 
	C19.528511,35.411766 18.738461,35.753525 17.948410,36.095284 
	C17.765354,36.094940 17.582296,36.094597 17.125729,36.072598 
	C16.570696,35.546654 16.289167,35.042362 15.957600,34.253029 
	C16.731998,33.742886 17.556438,33.517784 18.695026,33.209042 
	C19.009178,33.125401 19.002754,33.088200 19.083395,33.332985 
	C19.616034,33.474327 20.068031,33.370888 20.601131,33.491730 
	C21.266945,33.877605 21.851652,34.039204 22.484987,34.412209 
	C22.533615,34.623619 22.519854,35.057262 22.519854,35.057262 
z"/>
<path fill="#4D1C05" opacity="1.000000" stroke="none" 
	d="
M23.214382,27.197865 
	C22.560211,28.405331 21.906040,29.612797 20.987473,30.890194 
	C20.200899,30.735952 19.678719,30.511776 19.021971,30.020449 
	C19.084822,29.354401 19.282240,28.955503 19.805616,28.312977 
	C20.486212,27.923431 20.598501,27.679173 20.468445,27.336571 
	C20.717119,26.932545 20.965794,26.528519 21.599014,26.120235 
	C22.294243,26.377827 22.604925,26.639677 22.987211,26.978725 
	C23.058815,27.055925 23.214382,27.197865 23.214382,27.197865 
z"/>
<path fill="#F77A3A" opacity="1.000000" stroke="none" 
	d="
M22.436359,34.200802 
	C21.851652,34.039204 21.266945,33.877605 20.225521,33.408211 
	C19.513456,33.096348 19.258104,33.092274 19.002754,33.088200 
	C19.002754,33.088200 19.009178,33.125401 19.009312,33.145653 
	C19.372879,32.761753 19.736315,32.357609 20.367802,31.884558 
	C21.713873,32.287079 22.791891,32.758507 23.553539,33.647194 
	C22.970232,34.109905 22.703295,34.155354 22.436359,34.200802 
z"/>
<path fill="#EC6D36" opacity="1.000000" stroke="none" 
	d="
M20.281128,27.300259 
	C20.598501,27.679173 20.486212,27.923431 19.976994,28.023392 
	C19.822412,27.977436 19.717304,27.884258 19.649204,27.861664 
	C19.677536,27.580688 19.848438,27.388981 20.281128,27.300259 
z"/>
<path fill="#F89945" opacity="1.000000" stroke="none" 
	d="
M23.063061,14.144754 
	C23.134678,14.174675 23.113375,14.013680 23.038111,13.987968 
	C22.962847,13.962255 22.991442,14.114834 23.063061,14.144754 
z"/>
<path fill="#FFEBDE" opacity="1.000000" stroke="none" 
	d="
M18.124653,36.334732 
	C18.738461,35.753525 19.528511,35.411766 20.663231,35.117165 
	C21.014557,35.797470 21.021215,36.430622 20.636456,37.289883 
	C20.016335,37.351231 19.787632,37.186466 19.528797,37.031616 
	C19.498669,37.041531 19.400887,36.959621 19.400887,36.959625 
	C19.034222,36.831142 18.667559,36.702660 18.124653,36.334732 
z"/>
<path fill="#6F3236" opacity="1.000000" stroke="none" 
	d="
M19.558928,37.021702 
	C19.787632,37.186466 20.016335,37.351231 20.657703,37.607811 
	C21.070366,37.699631 21.043900,37.949734 21.020809,38.369080 
	C21.001255,39.193893 21.004789,39.599361 21.008326,40.004829 
	C20.512964,40.266506 20.017603,40.528183 19.263306,40.898575 
	C19.047462,40.106831 19.090555,39.206371 19.301445,37.778965 
	C19.469242,37.252014 19.558928,37.021702 19.558928,37.021702 
z"/>
<path fill="#FEEBE0" opacity="1.000000" stroke="none" 
	d="
M19.528797,37.031616 
	C19.558928,37.021702 19.469242,37.252014 19.377226,37.334518 
	C19.285210,37.417023 19.321623,37.183014 19.361256,37.071320 
	C19.400887,36.959621 19.498669,37.041531 19.528797,37.031616 
z"/>
<path fill="#5E2F28" opacity="1.000000" stroke="none" 
	d="
M21.178387,40.231052 
	C21.004789,39.599361 21.001255,39.193893 20.973030,38.485397 
	C22.387661,38.445518 23.826981,38.708664 25.629745,39.268810 
	C25.993193,39.565807 26.003483,39.988617 26.003483,39.988617 
	C25.557974,39.992046 25.112467,39.995476 24.332792,40.000923 
	C23.115234,40.154385 22.231840,40.305828 21.178387,40.231052 
z"/>
<path fill="#894910" opacity="1.000000" stroke="none" 
	d="
M28.802631,15.671676 
	C28.238777,15.901659 27.482040,15.912451 26.354790,15.839376 
	C26.859434,15.654502 27.734591,15.553493 28.802631,15.671676 
z"/>
<path fill="#532300" opacity="1.000000" stroke="none" 
	d="
M31.028629,27.730755 
	C31.008713,27.977859 30.672295,27.936180 30.432064,27.613880 
	C30.098867,26.877329 30.005905,26.463078 29.956038,25.632605 
	C29.930634,24.100016 29.862133,22.983650 29.793633,21.867285 
	C29.864155,21.470676 29.934677,21.074068 30.005875,20.376167 
	C30.006550,20.074873 30.454802,19.881260 30.680342,19.786320 
	C30.949541,21.824865 30.993200,23.958353 31.067881,26.541122 
	C31.098900,26.990406 31.048546,27.483652 31.028629,27.730755 
z"/>
<path fill="#4F2602" opacity="1.000000" stroke="none" 
	d="
M24.117413,26.035423 
	C23.955505,26.329052 23.793600,26.622681 23.423038,27.057087 
	C23.214382,27.197865 23.058815,27.055925 23.014565,26.594372 
	C22.974413,25.099018 22.978512,24.065214 22.982609,23.031412 
	C22.992489,22.257719 23.002367,21.484024 23.031498,20.322208 
	C23.050751,19.934088 23.484787,19.975288 23.699165,20.319523 
	C23.983019,21.084383 24.052496,21.505009 24.072475,22.334579 
	C24.054459,23.840822 24.085936,24.938124 24.117413,26.035423 
z"/>
<path fill="#B76E32" opacity="1.000000" stroke="none" 
	d="
M24.325363,25.915243 
	C24.085936,24.938124 24.054459,23.840822 24.296957,22.345276 
	C24.570932,21.947027 25.020596,21.958029 25.020596,21.958029 
	C25.028900,22.130220 25.037205,22.302414 25.042850,23.070530 
	C25.056728,24.118418 25.073263,24.570383 25.089798,25.022350 
	C24.974730,25.330647 24.789234,25.588217 24.325363,25.915243 
z"/>
<path fill="#B26325" opacity="1.000000" stroke="none" 
	d="
M29.593849,22.016794 
	C29.862133,22.983650 29.930634,24.100016 29.735981,25.597893 
	C29.472830,25.979403 29.031845,25.914082 29.031845,25.914082 
	C29.031845,25.914082 29.014481,25.455101 28.998116,24.896465 
	C28.950752,23.898285 28.919756,23.458738 28.888760,23.019194 
	C28.994253,22.697607 29.162687,22.413311 29.593849,22.016794 
z"/>
<path fill="#EF822A" opacity="1.000000" stroke="none" 
	d="
M25.320179,25.014912 
	C25.073263,24.570383 25.056728,24.118418 25.065208,23.328152 
	C25.381060,23.465496 25.671894,23.941137 25.987087,24.706955 
	C26.011444,24.997133 25.550558,25.007473 25.320179,25.014912 
z"/>
<path fill="#F57F2E" opacity="1.000000" stroke="none" 
	d="
M28.694069,23.134499 
	C28.919756,23.458738 28.950752,23.898285 28.970173,24.668514 
	C28.651306,24.881716 28.402380,24.688883 28.103498,24.207216 
	C28.093765,23.698643 28.261835,23.450668 28.694069,23.134499 
z"/>
<path fill="#F7811E" opacity="1.000000" stroke="none" 
	d="
M24.992210,21.660156 
	C25.020596,21.958029 24.570932,21.947027 24.346451,21.936331 
	C24.052496,21.505009 23.983019,21.084383 23.915829,20.343552 
	C24.266687,20.469658 24.615255,20.915970 24.992210,21.660156 
z"/>
<path fill="#3A2813" opacity="1.000000" stroke="none" 
	d="
M22.734390,23.020430 
	C22.978512,24.065214 22.974413,25.099018 22.942961,26.517174 
	C22.604925,26.639677 22.294243,26.377827 21.830811,25.847006 
	C21.720737,24.926283 21.763416,24.274532 21.897823,23.307396 
	C21.989550,22.992012 22.486170,23.009447 22.734390,23.020430 
z"/>
<path fill="#E67A40" opacity="1.000000" stroke="none" 
	d="
M22.484987,34.412209 
	C22.703295,34.155354 22.970232,34.109905 23.639996,34.008331 
	C26.151440,34.073936 28.260059,34.195667 30.663788,34.560791 
	C28.471504,34.905457 25.984116,35.006729 23.008289,35.082630 
	C22.519854,35.057262 22.533615,34.623619 22.484987,34.412209 
z"/>
<path fill="#674337" opacity="1.000000" stroke="none" 
	d="
M26.253796,39.996872 
	C26.003483,39.988617 25.993193,39.565807 25.988323,39.354393 
	C26.741930,39.081947 27.500404,39.020908 28.635990,39.023232 
	C28.536985,39.382530 28.060865,39.678478 27.294510,40.003296 
	C26.837551,40.023155 26.670830,40.014145 26.253796,39.996872 
z"/>
<path fill="#F57F2E" opacity="1.000000" stroke="none" 
	d="
M29.052629,26.244480 
	C29.031845,25.914082 29.472830,25.979403 29.692886,26.014114 
	C30.005905,26.463078 30.098867,26.877329 30.262970,27.602236 
	C29.913877,27.466888 29.493647,27.020884 29.052629,26.244480 
z"/>
<path fill="#DF8358" opacity="1.000000" stroke="none" 
	d="
M19.083395,33.332985 
	C19.258104,33.092274 19.513456,33.096348 20.144417,33.183933 
	C20.068031,33.370888 19.616034,33.474327 19.083395,33.332985 
z"/>
</svg>