<?xml version="1.0" standalone="no"?>
<!DOCTYPE svg PUBLIC "-//W3C//DTD SVG 20010904//EN"
 "http://www.w3.org/TR/2001/REC-SVG-20010904/DTD/svg10.dtd">
<svg version="1.0" xmlns="http://www.w3.org/2000/svg"
 width="53.000000pt" height="53.000000pt" viewBox="0 0 53.000000 53.000000"
 preserveAspectRatio="xMidYMid meet">

<g transform="translate(0.000000,53.000000) scale(0.100000,-0.100000)"
fill="#000000" stroke="none">
<path d="M243 453 c9 -2 23 -2 30 0 6 3 -1 5 -18 5 -16 0 -22 -2 -12 -5z"/>
<path d="M221 401 c-7 -5 -40 -6 -72 -4 -54 5 -60 4 -88 -25 -39 -39 -41 -83
-6 -135 14 -20 30 -37 34 -37 5 0 18 -15 29 -34 24 -41 56 -63 102 -72 24 -5
31 -4 26 4 -4 7 -4 12 1 13 4 0 16 2 27 4 10 2 26 -1 36 -7 14 -9 24 -6 49 11
17 12 31 26 31 31 0 4 20 30 45 56 48 53 62 94 46 136 -16 42 -51 60 -118 57
-32 -1 -74 1 -93 5 -19 4 -41 3 -49 -3z m-43 -38 c60 -51 16 -130 -69 -124
-24 2 -59 40 -59 65 0 13 9 35 21 50 25 31 76 35 107 9z m116 8 c3 -5 1 -23
-5 -40 -16 -46 3 -95 47 -116 39 -18 36 -31 -12 -51 -45 -19 -96 -18 -139 3
-41 19 -44 30 -12 42 50 19 76 76 57 125 -5 15 -8 32 -4 37 7 12 61 12 68 0z
m144 -8 c12 -10 24 -29 27 -43 12 -51 -66 -108 -99 -74 -8 7 -16 11 -19 8 -3
-3 -13 5 -22 19 -44 67 51 142 113 90z"/>
<path d="M151 327 c-17 -17 -13 -44 8 -50 22 -6 31 0 31 20 0 24 -25 44 -39
30z"/>
<path d="M337 334 c-4 -4 -7 -21 -7 -37 0 -22 4 -28 16 -23 9 3 20 6 25 6 5 0
9 9 9 20 0 11 -6 20 -14 20 -8 0 -16 5 -18 11 -2 5 -7 7 -11 3z"/>
<path d="M278 93 c7 -3 16 -2 19 1 4 3 -2 6 -13 5 -11 0 -14 -3 -6 -6z"/>
</g>
</svg>
